# xmcd CD database file
#
# Track frame offsets:
#	150
#	17647
#	32187
#	46250
#	60800
#	74637
#	92612
#	105750
#	124275
#	142762
#	160507
#	176172
#	193425
#	210400
#	226942
#	243995
#
# Disc length: 3474 seconds
#
# Revision: 2
# Processed by: cddbd v1.5.2PL0 Copyright (c) Steve Scherf et al.
# Submitted via: CDex 1.51
#
DISCID=cd0d9010
DTITLE=Collin Raye - 16 Biggest Hits
DYEAR=2002
DGENRE=Country
TTITLE0=Love, Me
TTITLE1=In This Life
TTITLE2=Somebody Else's Moon
TTITLE3=That Was A River
TTITLE4=That's My Story
TTITLE5=Little Rock
TTITLE6=My Kind Of Girl
TTITLE7=If I Were You
TTITLE8=One Boy, One Girl
TTITLE9=Not That Different
TTITLE10=I Think About You
TTITLE11=On The Verge
TTITLE12=What The Heart Wants
TTITLE13=I Can Still Feel You
TTITLE14=Someone You Used To Know
TTITLE15=Couldn't Last A Moment
EXTD=YEAR: 2002
EXTT0=
EXTT1=
EXTT2=
EXTT3=
EXTT4=
EXTT5=
EXTT6=
EXTT7=
EXTT8=
EXTT9=
EXTT10=
EXTT11=
EXTT12=
EXTT13=
EXTT14=
EXTT15=
PLAYORDER=
